<svg width="364" height="58" viewBox="0 0 364 58" fill="none" xmlns="http://www.w3.org/2000/svg">
<path d="M84.25 46V11.0909H99.3182C101.909 11.0909 104.176 11.5625 106.119 12.5057C108.063 13.4489 109.574 14.8068 110.653 16.5795C111.733 18.3523 112.273 20.4773 112.273 22.9545C112.273 25.4545 111.716 27.5625 110.602 29.2784C109.5 30.9943 107.949 32.2898 105.949 33.1648C103.96 34.0398 101.636 34.4773 98.9773 34.4773H89.9773V27.1136H97.0682C98.1818 27.1136 99.1307 26.9773 99.9148 26.7045C100.71 26.4205 101.318 25.9716 101.739 25.358C102.17 24.7443 102.386 23.9432 102.386 22.9545C102.386 21.9545 102.17 21.142 101.739 20.517C101.318 19.8807 100.71 19.4148 99.9148 19.1193C99.1307 18.8125 98.1818 18.6591 97.0682 18.6591H93.7273V46H84.25ZM104.705 29.9773L113.432 46H103.136L94.6136 29.9773H104.705ZM128.432 46.4773C125.636 46.4773 123.227 45.9432 121.205 44.875C119.193 43.7955 117.642 42.25 116.551 40.2386C115.472 38.2159 114.932 35.7955 114.932 32.9773C114.932 30.2727 115.477 27.9091 116.568 25.8864C117.659 23.8636 119.199 22.2898 121.188 21.1648C123.176 20.0398 125.523 19.4773 128.227 19.4773C130.205 19.4773 131.994 19.7841 133.597 20.3977C135.199 21.0114 136.568 21.9034 137.705 23.0739C138.841 24.233 139.716 25.642 140.33 27.3011C140.943 28.9602 141.25 30.8295 141.25 32.9091V35.0909H117.864V29.9091H132.591C132.58 29.1591 132.386 28.5 132.011 27.9318C131.648 27.3523 131.153 26.9034 130.528 26.5852C129.915 26.2557 129.216 26.0909 128.432 26.0909C127.67 26.0909 126.972 26.2557 126.335 26.5852C125.699 26.9034 125.188 27.3466 124.801 27.9148C124.426 28.483 124.227 29.1477 124.205 29.9091V35.5C124.205 36.3409 124.381 37.0909 124.733 37.75C125.085 38.4091 125.591 38.9261 126.25 39.3011C126.909 39.6761 127.705 39.8636 128.636 39.8636C129.284 39.8636 129.875 39.7727 130.409 39.5909C130.955 39.4091 131.42 39.1477 131.807 38.8068C132.193 38.4545 132.477 38.0341 132.659 37.5455H141.25C140.955 39.3636 140.256 40.9432 139.153 42.2841C138.051 43.6136 136.591 44.6477 134.773 45.3864C132.966 46.1136 130.852 46.4773 128.432 46.4773ZM154.567 46.3409C152.703 46.3409 150.987 45.8523 149.419 44.875C147.862 43.8977 146.612 42.4148 145.669 40.4261C144.737 38.4375 144.271 35.9318 144.271 32.9091C144.271 29.75 144.76 27.1818 145.737 25.2045C146.726 23.2273 147.999 21.7784 149.555 20.858C151.124 19.9375 152.771 19.4773 154.499 19.4773C155.794 19.4773 156.93 19.7045 157.908 20.1591C158.885 20.6023 159.703 21.1989 160.362 21.9489C161.021 22.6875 161.521 23.5 161.862 24.3864H161.999V11.0909H171.408V46H162.067V41.7045H161.862C161.499 42.5909 160.976 43.3864 160.294 44.0909C159.624 44.7841 158.805 45.3352 157.839 45.7443C156.885 46.142 155.794 46.3409 154.567 46.3409ZM158.044 39.1136C158.908 39.1136 159.646 38.8636 160.26 38.3636C160.885 37.8523 161.362 37.1364 161.692 36.2159C162.033 35.2841 162.203 34.1818 162.203 32.9091C162.203 31.6136 162.033 30.5057 161.692 29.5852C161.362 28.6534 160.885 27.9432 160.26 27.4545C159.646 26.9545 158.908 26.7045 158.044 26.7045C157.18 26.7045 156.442 26.9545 155.828 27.4545C155.226 27.9432 154.76 28.6534 154.43 29.5852C154.112 30.5057 153.953 31.6136 153.953 32.9091C153.953 34.2045 154.112 35.3182 154.43 36.25C154.76 37.1705 155.226 37.8807 155.828 38.3807C156.442 38.8693 157.18 39.1136 158.044 39.1136ZM175.891 46V11.0909H185.368V24.7273H197.913V11.0909H207.391V46H197.913V32.3636H185.368V46H175.891ZM224.641 46.4773C221.8 46.4773 219.368 45.9148 217.345 44.7898C215.322 43.6534 213.771 42.0739 212.692 40.0511C211.612 38.017 211.072 35.6591 211.072 32.9773C211.072 30.2955 211.612 27.9432 212.692 25.9205C213.771 23.8864 215.322 22.3068 217.345 21.1818C219.368 20.0455 221.8 19.4773 224.641 19.4773C227.482 19.4773 229.913 20.0455 231.936 21.1818C233.959 22.3068 235.51 23.8864 236.589 25.9205C237.669 27.9432 238.209 30.2955 238.209 32.9773C238.209 35.6591 237.669 38.017 236.589 40.0511C235.51 42.0739 233.959 43.6534 231.936 44.7898C229.913 45.9148 227.482 46.4773 224.641 46.4773ZM224.709 39.5227C225.504 39.5227 226.192 39.2557 226.771 38.7216C227.351 38.1875 227.8 37.4261 228.118 36.4375C228.436 35.4489 228.595 34.2727 228.595 32.9091C228.595 31.5341 228.436 30.358 228.118 29.3807C227.8 28.392 227.351 27.6307 226.771 27.0966C226.192 26.5625 225.504 26.2955 224.709 26.2955C223.868 26.2955 223.146 26.5625 222.544 27.0966C221.942 27.6307 221.482 28.392 221.163 29.3807C220.845 30.358 220.686 31.5341 220.686 32.9091C220.686 34.2727 220.845 35.4489 221.163 36.4375C221.482 37.4261 221.942 38.1875 222.544 38.7216C223.146 39.2557 223.868 39.5227 224.709 39.5227ZM242.027 46V19.8182H251.163V24.7955H251.436C251.913 22.9545 252.669 21.608 253.703 20.7557C254.749 19.9034 255.97 19.4773 257.368 19.4773C257.777 19.4773 258.18 19.5114 258.578 19.5795C258.987 19.6364 259.379 19.7216 259.754 19.8352V27.8636C259.288 27.7045 258.714 27.5852 258.033 27.5057C257.351 27.4261 256.766 27.3864 256.277 27.3864C255.357 27.3864 254.527 27.5966 253.788 28.017C253.061 28.4261 252.487 29.0057 252.067 29.7557C251.646 30.4943 251.436 31.3636 251.436 32.3636V46H242.027ZM262.839 46V19.8182H272.249V46H262.839ZM267.544 17.0909C266.271 17.0909 265.18 16.6705 264.271 15.8295C263.362 14.9886 262.908 13.9773 262.908 12.7955C262.908 11.6136 263.362 10.6023 264.271 9.76136C265.18 8.92045 266.271 8.5 267.544 8.5C268.828 8.5 269.919 8.92045 270.817 9.76136C271.726 10.6023 272.18 11.6136 272.18 12.7955C272.18 13.9773 271.726 14.9886 270.817 15.8295C269.919 16.6705 268.828 17.0909 267.544 17.0909ZM277.315 46V40.8182L288.77 27.1136V26.9773H277.724V19.8182H299.884V25.5455L289.452 38.7045V38.8409H300.293V46H277.315ZM317.359 46.4773C314.518 46.4773 312.087 45.9148 310.064 44.7898C308.041 43.6534 306.49 42.0739 305.411 40.0511C304.331 38.017 303.791 35.6591 303.791 32.9773C303.791 30.2955 304.331 27.9432 305.411 25.9205C306.49 23.8864 308.041 22.3068 310.064 21.1818C312.087 20.0455 314.518 19.4773 317.359 19.4773C320.2 19.4773 322.632 20.0455 324.655 21.1818C326.678 22.3068 328.229 23.8864 329.308 25.9205C330.388 27.9432 330.928 30.2955 330.928 32.9773C330.928 35.6591 330.388 38.017 329.308 40.0511C328.229 42.0739 326.678 43.6534 324.655 44.7898C322.632 45.9148 320.2 46.4773 317.359 46.4773ZM317.428 39.5227C318.223 39.5227 318.911 39.2557 319.49 38.7216C320.07 38.1875 320.518 37.4261 320.837 36.4375C321.155 35.4489 321.314 34.2727 321.314 32.9091C321.314 31.5341 321.155 30.358 320.837 29.3807C320.518 28.392 320.07 27.6307 319.49 27.0966C318.911 26.5625 318.223 26.2955 317.428 26.2955C316.587 26.2955 315.865 26.5625 315.263 27.0966C314.661 27.6307 314.2 28.392 313.882 29.3807C313.564 30.358 313.405 31.5341 313.405 32.9091C313.405 34.2727 313.564 35.4489 313.882 36.4375C314.2 37.4261 314.661 38.1875 315.263 38.7216C315.865 39.2557 316.587 39.5227 317.428 39.5227ZM344.155 31.2727V46H334.746V19.8182H343.678V24.7955H343.95C344.518 23.1364 345.518 21.8352 346.95 20.892C348.393 19.9489 350.075 19.4773 351.996 19.4773C353.848 19.4773 355.456 19.9034 356.82 20.7557C358.195 21.5966 359.257 22.7557 360.007 24.233C360.768 25.7102 361.143 27.3977 361.132 29.2955V46H351.723V31.2727C351.734 29.9773 351.405 28.9602 350.734 28.2216C350.075 27.483 349.155 27.1136 347.973 27.1136C347.2 27.1136 346.524 27.2841 345.945 27.625C345.376 27.9545 344.939 28.4318 344.632 29.0568C344.325 29.6705 344.166 30.4091 344.155 31.2727Z" fill="#9A0B0B"/>
<path d="M60.4609 36.075H25.3446L26.1286 39.6825H58.2829C60.1278 39.6825 61.4952 41.2947 61.0863 42.9878L60.4254 45.7245C62.6645 46.7474 64.2083 48.9073 64.2083 51.4069C64.2083 54.9244 61.1514 57.7701 57.4013 57.7193C53.8288 57.671 50.8906 54.9426 50.7942 51.5813C50.7415 49.7452 51.5231 48.081 52.8071 46.8974H27.693C28.936 48.0435 29.7083 49.6399 29.7083 51.4069C29.7083 54.9933 26.5305 57.8813 22.6802 57.713C19.2613 57.5637 16.4808 54.964 16.3011 51.7475C16.1624 49.2635 17.5513 47.0741 19.6614 45.9319L11.2464 7.215H2.875C1.28716 7.215 0 6.00367 0 4.50938V2.70563C0 1.21133 1.28716 0 2.875 0H15.1571C16.5229 0 17.7001 0.904243 17.9738 2.16337L19.0718 7.215H66.1238C67.9687 7.215 69.3362 8.82722 68.9273 10.5203L63.2644 33.969C62.9669 35.2009 61.8033 36.075 60.4609 36.075ZM48.2795 21.645H43.125V14.8809C43.125 14.1339 42.4814 13.5281 41.6875 13.5281H38.8125C38.0186 13.5281 37.375 14.1339 37.375 14.8809V21.645H32.2205C30.9398 21.645 30.2984 23.1022 31.2041 23.9544L39.2336 31.5108C39.7949 32.0391 40.7051 32.0391 41.2666 31.5108L49.2961 23.9544C50.2016 23.1022 49.5602 21.645 48.2795 21.645Z" fill="#2B2323" fill-opacity="0.67"/>
</svg>
